<?xml version="1.0" encoding="utf-8"?>
<!-- Generator: Adobe Illustrator 15.0.0, SVG Export Plug-In . SVG Version: 6.00 Build 0)  -->
<!DOCTYPE svg PUBLIC "-//W3C//DTD SVG 1.1//EN" "http://www.w3.org/Graphics/SVG/1.1/DTD/svg11.dtd">
<svg version="1.1"  xmlns="http://www.w3.org/2000/svg" xmlns:xlink="http://www.w3.org/1999/xlink" x="0px" y="0px"
	 width="48px" height="48px" viewBox="0 0 48 48" enable-background="new 0 0 48 48" xml:space="preserve">
<g>
	<rect x="11" y="37" fill="#B76648" width="3" height="3"/>
	<rect x="14" y="34" fill="#B76648" width="3" height="3"/>
	<rect x="17" y="31" fill="#B76648" width="3" height="3"/>
	<rect x="20" y="28" fill="#B76648" width="3" height="3"/>
	<rect x="23" y="25" fill="#B76648" width="3" height="3"/>
	<rect x="26" y="22" fill="#B76648" width="3" height="3"/>
	<rect x="35" y="13" fill="#B76648" width="3" height="3"/>
</g>
<g>
	<rect x="32" y="25" fill="#00BCD4" width="6" height="3"/>
	<rect x="38" y="19" fill="#00BCD4" width="3" height="6"/>
	<rect x="32" y="7" fill="#00BCD4" width="3" height="6"/>
	<rect x="26" y="4" fill="#00BCD4" width="6" height="3"/>
	<rect x="23" y="7" fill="#00BCD4" width="3" height="3"/>
	<rect x="20" y="10" fill="#00BCD4" width="3" height="3"/>
	<rect x="17" y="13" fill="#00BCD4" width="3" height="6"/>
	<rect x="20" y="19" fill="#00BCD4" width="6" height="3"/>
</g>
<g>
	<rect x="14" y="37" fill="#37474F" width="3" height="3"/>
	<rect x="17" y="34" fill="#37474F" width="3" height="3"/>
	<rect x="23" y="28" fill="#37474F" width="3" height="3"/>
	<rect x="20" y="31" fill="#37474F" width="3" height="3"/>
	<rect x="26" y="25" fill="#37474F" width="3" height="3"/>
	<rect x="35" y="16" fill="#37474F" width="3" height="3"/>
	<rect x="32" y="13" fill="#37474F" width="3" height="3"/>
	<polygon fill="#37474F" points="11,40 11,37 8,37 8,43 14,43 14,40 	"/>
	<rect x="11" y="34" fill="#37474F" width="3" height="3"/>
	<rect x="14" y="31" fill="#37474F" width="3" height="3"/>
	<rect x="17" y="28" fill="#37474F" width="3" height="3"/>
	<rect x="20" y="25" fill="#37474F" width="3" height="3"/>
	<rect x="23" y="22" fill="#37474F" width="3" height="3"/>
	<rect x="29" y="22" fill="#37474F" width="3" height="3"/>
	<rect x="26" y="19" fill="#37474F" width="3" height="3"/>
</g>
<polygon fill="#4DD0E1" points="20,13 23,13 23,10 26,10 26,7 32,7 32,16 35,16 35,19 38,19 38,25 32,25 32,22 29,22 29,19 20,19 
	"/>
</svg>
